<?xml version="1.0" encoding="UTF-8" standalone="no"?>
<!-- Created with Inkscape (http://www.inkscape.org/) -->

<svg
   xmlns:dc="http://purl.org/dc/elements/1.1/"
   xmlns:cc="http://creativecommons.org/ns#"
   xmlns:rdf="http://www.w3.org/1999/02/22-rdf-syntax-ns#"
   xmlns:svg="http://www.w3.org/2000/svg"
   xmlns="http://www.w3.org/2000/svg"
   xmlns:sodipodi="http://sodipodi.sourceforge.net/DTD/sodipodi-0.dtd"
   xmlns:inkscape="http://www.inkscape.org/namespaces/inkscape"
   width="67.138199mm"
   height="72.238663mm"
   viewBox="0 0 67.138199 72.238663"
   version="1.1"
   id="svg4377"
   inkscape:version="0.92.3 (2405546, 2018-03-11)"
   sodipodi:docname="dibujo.svg">
  <defs
     id="defs4371" />
  <sodipodi:namedview
     id="base"
     pagecolor="#ffffff"
     bordercolor="#666666"
     borderopacity="1.0"
     inkscape:pageopacity="0.0"
     inkscape:pageshadow="2"
     inkscape:zoom="0.35"
     inkscape:cx="149.73249"
     inkscape:cy="42.228309"
     inkscape:document-units="mm"
     inkscape:current-layer="layer1"
     showgrid="false"
     inkscape:window-width="1366"
     inkscape:window-height="716"
     inkscape:window-x="1272"
     inkscape:window-y="-8"
     inkscape:window-maximized="1"
     fit-margin-top="0"
     fit-margin-left="0"
     fit-margin-right="0"
     fit-margin-bottom="0" />
  <metadata
     id="metadata4374">
    <rdf:RDF>
      <cc:Work
         rdf:about="">
        <dc:format>image/svg+xml</dc:format>
        <dc:type
           rdf:resource="http://purl.org/dc/dcmitype/StillImage" />
        <dc:title></dc:title>
      </cc:Work>
    </rdf:RDF>
  </metadata>
  <g
     inkscape:label="Capa 1"
     inkscape:groupmode="layer"
     id="layer1"
     transform="translate(-66.216613,-87.767576)">
    <g
       id="g3808"
       transform="matrix(0.35277777,0,0,-0.35277777,128.41592,100.76854)">
      <path
         d="m 0,0 v -7.019 -55.429 -6.159 -55.433 -7.02 -22.858 h -20.562 -6.66 -51.092 -5.677 -51.367 -6.609 -20.346 v 22.853 7.019 55.43 6.159 55.432 7.02 22.858 h 20.562 6.66 51.092 5.677 51.095 6.661 L 0,22.853 Z M -170.313,-161.918 H 8 V 30.853 h -178.313 z"
         style="fill:#0b0b5b;fill-opacity:1;fill-rule:nonzero;stroke:none"
         id="path3810"
         inkscape:connector-curvature="0" />
    </g>
    <path
       d="M 73.272243,94.822996 H 126.29932 V 152.95054 H 73.272243 Z"
       style="fill:none;stroke:#0b0b5b;stroke-width:0.7055555;stroke-linecap:round;stroke-linejoin:round;stroke-miterlimit:10;stroke-dasharray:none;stroke-opacity:1"
       id="path3812"
       inkscape:connector-curvature="0" />
    <g
       id="g3814"
       transform="matrix(0.35277777,0,0,-0.35277777,133.35481,113.02164)">
      <path
         d="M 0,0 -14,27.714 V -27.715 Z"
         style="fill:#00c79c;fill-opacity:1;fill-rule:nonzero;stroke:none"
         id="path3816"
         inkscape:connector-curvature="0" />
    </g>
    <path
       inkscape:connector-curvature="0"
       id="path3820"
       style="fill:#f3a61c;fill-opacity:1;fill-rule:nonzero;stroke:none;stroke-width:0.35277775"
       d="m 78.409143,92.706466 -9.96174,-2.60668 2.70828,10.670474 v -8.063794 z" />
    <g
       id="g3822"
       transform="matrix(0.35277777,0,0,-0.35277777,121.16228,92.706466)">
      <path
         d="M 0,0 28.238,7.389 20.562,-22.858 V 0 Z"
         style="fill:#f3a61c;fill-opacity:1;fill-rule:nonzero;stroke:none"
         id="path3824"
         inkscape:connector-curvature="0" />
    </g>
    <g
       id="g3826"
       transform="matrix(0.35277777,0,0,-0.35277777,121.16228,155.06735)">
      <path
         d="M 0,0 28.238,-7.388 20.562,22.858 V 0 Z"
         style="fill:#00b7e2;fill-opacity:1;fill-rule:nonzero;stroke:none"
         id="path3828"
         inkscape:connector-curvature="0" />
    </g>
    <g
       id="g3830"
       transform="matrix(0.35277777,0,0,-0.35277777,133.35481,134.74872)">
      <path
         d="M 0,0 -14,27.714 V -27.718 Z"
         style="fill:#ff0081;fill-opacity:1;fill-rule:nonzero;stroke:none"
         id="path3832"
         inkscape:connector-curvature="0" />
    </g>
    <g
       id="g3834"
       transform="matrix(0.35277777,0,0,-0.35277777,109.80083,160.00624)">
      <path
         d="M 0,0 25.545,14 H -25.547 Z"
         style="fill:#f3a61c;fill-opacity:1;fill-rule:nonzero;stroke:none"
         id="path3836"
         inkscape:connector-curvature="0" />
    </g>
    <g
       id="g3838"
       transform="matrix(0.35277777,0,0,-0.35277777,71.155503,147.00528)">
      <path
         d="m 0,0 -7.676,-30.242 28.022,7.389 H 0 Z"
         style="fill:#f3a61c;fill-opacity:1;fill-rule:nonzero;stroke:none"
         id="path3840"
         inkscape:connector-curvature="0" />
    </g>
    <g
       id="g3842"
       transform="matrix(0.35277777,0,0,-0.35277777,89.773813,160.00624)">
      <path
         d="M 0,0 25.546,14 H -25.821 Z"
         style="fill:#ff0081;fill-opacity:1;fill-rule:nonzero;stroke:none"
         id="path3844"
         inkscape:connector-curvature="0" />
    </g>
    <g
       id="g3846"
       transform="matrix(0.35277777,0,0,-0.35277777,66.216613,134.75222)">
      <path
         d="M 0,0 14,-27.714 V 27.715 Z"
         style="fill:#00c79c;fill-opacity:1;fill-rule:nonzero;stroke:none"
         id="path3848"
         inkscape:connector-curvature="0" />
    </g>
    <g
       id="g3850"
       transform="matrix(0.35277777,0,0,-0.35277777,66.216613,113.02509)">
      <path
         d="M 0,0 14,-27.714 V 27.718 Z"
         style="fill:#ff0081;fill-opacity:1;fill-rule:nonzero;stroke:none"
         id="path3852"
         inkscape:connector-curvature="0" />
    </g>
    <g
       id="g3854"
       transform="matrix(0.35277777,0,0,-0.35277777,89.770603,87.767576)">
      <path
         d="M 0,0 -25.545,-14 H 25.547 Z"
         style="fill:#00b7e2;fill-opacity:1;fill-rule:nonzero;stroke:none"
         id="path3856"
         inkscape:connector-curvature="0" />
    </g>
    <g
       id="g3858"
       transform="matrix(0.35277777,0,0,-0.35277777,109.79762,87.767576)">
      <path
         d="M 0,0 -25.546,-14 H 25.549 Z"
         style="fill:#ff0081;fill-opacity:1;fill-rule:nonzero;stroke:none"
         id="path3860"
         inkscape:connector-curvature="0" />
    </g>
    <text
       y="119.18841"
       x="81.727303"
       style="font-variant:normal;font-weight:normal;font-stretch:normal;font-size:6.65317726px;font-family:'Code Pro Demo';-inkscape-font-specification:Code-Pro-Demo;writing-mode:lr-tb;fill:#ff0081;fill-opacity:1;fill-rule:nonzero;stroke:none;stroke-width:0.35277775"
       id="text3864">
      <tspan
         style="stroke-width:0.35277775"
         x="81.727303 86.983315 92.558678 95.991722 101.56709 105.63218 109.15171 113.81557"
         y="119.18841"
         sodipodi:role="line"
         id="tspan3862">colorful</tspan>
    </text>
    <text
       y="131.65344"
       x="81.463074"
       style="font-variant:normal;font-weight:normal;font-stretch:normal;font-size:11.4462986px;font-family:'Code Pro Demo';-inkscape-font-specification:Code-Pro-Demo;writing-mode:lr-tb;fill:#0b0b5b;fill-opacity:1;fill-rule:nonzero;stroke:none;stroke-width:0.35277775"
       id="text3868">
      <tspan
         style="stroke-width:0.35277775"
         x="81.463074 87.518166 94.878136 102.76464 111.77287"
         y="131.65344"
         sodipodi:role="line"
         id="tspan3866">frame</tspan>
    </text>
  </g>
</svg>
